<svg width="35" height="36" viewBox="0 0 35 36" fill="none" xmlns="http://www.w3.org/2000/svg">
<g clip-path="url(#clip0_1_523)">
<path d="M0.747262 17.7844C0.746442 20.8091 1.5208 23.7625 2.99322 26.3657L0.606445 35.2599L9.52466 32.8733C11.9913 34.2438 14.755 34.962 17.5635 34.9622H17.5709C26.8423 34.9622 34.3894 27.2622 34.3933 17.798C34.3951 13.2119 32.6468 8.89942 29.4703 5.65495C26.2944 2.41077 22.0706 0.623187 17.5702 0.621094C8.29778 0.621094 0.751227 8.32063 0.747399 17.7844" fill="url(#paint0_linear_1_523)"/>
<path d="M0.146285 17.8844C0.145328 21.018 0.947437 24.077 2.47236 26.7734L0 35.9864L9.23799 33.5143C11.7834 34.9307 14.6492 35.6775 17.5653 35.6786H17.5728C27.1768 35.6786 34.995 27.7017 34.9991 17.8987C35.0008 13.1478 33.1896 8.68031 29.8996 5.31961C26.6093 1.95933 22.2344 0.107422 17.5728 0.105469C7.96722 0.105469 0.150113 8.08128 0.146285 17.8844ZM5.64785 26.309L5.30291 25.7502C3.85291 23.3971 3.08758 20.6778 3.08867 17.8856C3.09168 9.73742 9.58894 3.10826 17.5783 3.10826C21.4474 3.10993 25.0834 4.64928 27.8183 7.44221C30.553 10.2354 32.0578 13.9484 32.0569 17.8976C32.0533 26.0457 25.5559 32.6757 17.5728 32.6757H17.5671C14.9677 32.6743 12.4184 31.9618 10.1951 30.6155L9.66605 30.2952L4.18404 31.7622L5.64785 26.309Z" fill="url(#paint1_linear_1_523)"/>
<path d="M13.2178 10.3466C12.8916 9.60661 12.5483 9.59168 12.2381 9.5787C11.9841 9.56754 11.6937 9.56837 11.4036 9.56837C11.1132 9.56837 10.6414 9.67986 10.2426 10.1243C9.8434 10.5691 8.71851 11.6441 8.71851 13.8305C8.71851 16.0168 10.2788 18.13 10.4964 18.4267C10.7141 18.723 13.5086 23.3533 17.9344 25.1346C21.6125 26.6149 22.3611 26.3205 23.1593 26.2463C23.9578 26.1723 25.7356 25.1716 26.0983 24.1339C26.4613 23.0963 26.4613 22.2069 26.3525 22.021C26.2436 21.8359 25.9533 21.7247 25.5178 21.5025C25.0824 21.2804 22.9416 20.2051 22.5425 20.0568C22.1433 19.9086 21.853 19.8347 21.5626 20.2796C21.2723 20.7239 20.4384 21.7247 20.1843 22.021C19.9304 22.3181 19.6762 22.3551 19.2409 22.1328C18.8052 21.9098 17.4029 21.4411 15.7393 19.9273C14.4448 18.7494 13.5709 17.2947 13.3169 16.8497C13.0629 16.4054 13.2897 16.1646 13.5081 15.9432C13.7037 15.744 13.9436 15.4242 14.1616 15.1648C14.3787 14.9053 14.4511 14.7201 14.5963 14.4238C14.7416 14.1271 14.6689 13.8676 14.5602 13.6453C14.4511 13.423 13.605 11.2252 13.2178 10.3466Z" fill="white"/>
</g>
<defs>
<linearGradient id="paint0_linear_1_523" x1="1689.95" y1="3464.51" x2="1689.95" y2="0.621094" gradientUnits="userSpaceOnUse">
<stop stop-color="#1FAF38"/>
<stop offset="1" stop-color="#60D669"/>
</linearGradient>
<linearGradient id="paint1_linear_1_523" x1="1749.96" y1="3588.2" x2="1749.96" y2="0.105469" gradientUnits="userSpaceOnUse">
<stop stop-color="#F9F9F9"/>
<stop offset="1" stop-color="white"/>
</linearGradient>
<clipPath id="clip0_1_523">
<rect width="35" height="36" fill="white"/>
</clipPath>
</defs>
</svg>
