<svg width="100" height="100" viewBox="0 0 100 100" fill="none" xmlns="http://www.w3.org/2000/svg">
<path d="M16.667 58.625C20.8962 58.625 26.7962 57.3667 30.5003 60.0833L37.842 65.4583C40.5712 67.4583 43.5253 66.8 46.5712 66.325C50.5795 65.6958 54.167 69.1167 54.167 73.5667C54.167 74.7833 45.5295 77.8792 44.2837 78.4667C43.0841 79.0339 41.7525 79.263 40.4324 79.1294C39.1122 78.9957 37.8535 78.5044 36.792 77.7083L28.5087 71.6375" stroke="#9F3691" stroke-width="6.25" stroke-linecap="round" stroke-linejoin="round"/>
<path d="M54.167 70.8335L71.2128 62.9585C72.7161 62.4391 74.3375 62.3653 75.8818 62.746C77.4261 63.1267 78.8274 63.9457 79.917 65.1043L82.7087 68.0252C83.7087 69.0668 83.4753 70.8252 82.2378 71.5418L49.5128 90.546C48.5461 91.1126 47.473 91.4741 46.3605 91.6082C45.248 91.7422 44.1198 91.6459 43.0462 91.3252L16.667 83.446M50.0087 50.0002C50.0087 50.0002 58.7587 40.671 58.7587 29.1668C58.7587 17.6627 50.0087 8.3335 50.0087 8.3335C50.0087 8.3335 41.2587 17.6627 41.2587 29.1668C41.2587 40.671 50.0087 50.0002 50.0087 50.0002ZM50.0087 50.0002C50.0087 50.0002 62.7878 49.7168 70.842 41.5002C78.8962 33.2793 79.1753 20.2377 79.1753 20.2377C79.1753 20.2377 73.8837 20.3543 67.967 22.6293M50.0087 50.0002C50.0087 50.0002 37.2295 49.7168 29.1753 41.5002C21.1212 33.2793 20.842 20.2377 20.842 20.2377C20.842 20.2377 26.1337 20.3543 32.0503 22.6293" stroke="#9F3691" stroke-width="6.25" stroke-linecap="round" stroke-linejoin="round"/>
</svg>
