<svg width="100" height="100" viewBox="0 0 100 100" fill="none" xmlns="http://www.w3.org/2000/svg">
<path d="M37.4171 66.5833C36.8282 66.5833 36.3351 66.3847 35.9379 65.9875C35.5379 65.5875 35.3379 65.0917 35.3379 64.5C35.3379 63.9083 35.5379 63.4139 35.9379 63.0167C36.3379 62.6194 36.8323 62.4208 37.4212 62.4208H46.5546C47.1462 62.4208 47.6407 62.6208 48.0379 63.0208C48.4351 63.4208 48.6351 63.9167 48.6379 64.5083C48.6407 65.1 48.4407 65.5944 48.0379 65.9917C47.6351 66.3889 47.1407 66.5875 46.5546 66.5875L37.4171 66.5833ZM34.7796 87.5C29.7712 87.5 25.5004 85.7764 21.9671 82.3292C18.4337 78.8819 16.6671 74.675 16.6671 69.7083V31.8917C14.7504 31.8917 13.1226 31.2361 11.7837 29.925C10.4448 28.6111 9.77539 26.9958 9.77539 25.0792V19.3917C9.77539 17.4972 10.4504 15.875 11.8004 14.525C13.1504 13.175 14.7726 12.5 16.6671 12.5H52.8046C54.7212 12.5 56.3629 13.175 57.7296 14.525C59.0934 15.875 59.7754 17.4972 59.7754 19.3917V25.0792C59.7754 26.9958 59.0934 28.6111 57.7296 29.925C56.3629 31.2361 54.7212 31.8917 52.8046 31.8917V43.8292C52.8046 45.6792 52.1448 47.2639 50.8254 48.5833C49.5059 49.9028 47.9226 50.5625 46.0754 50.5625H37.4171C36.8254 50.5625 36.3296 50.3625 35.9296 49.9625C35.5323 49.5625 35.3337 49.0667 35.3337 48.475C35.3337 47.8833 35.5323 47.3889 35.9296 46.9917C36.3268 46.5944 36.8226 46.3944 37.4171 46.3917H48.6337V31.8917H20.8337V69.7125C20.8337 73.5569 22.1921 76.7889 24.9087 79.4083C27.6226 82.025 30.9171 83.3333 34.7921 83.3333C36.1893 83.3333 37.5268 83.1472 38.8046 82.775C40.0851 82.4 41.2921 81.8458 42.4254 81.1125C42.8976 80.8264 43.4018 80.7417 43.9379 80.8583C44.474 80.975 44.8809 81.2792 45.1587 81.7708C45.4726 82.2625 45.5587 82.7986 45.4171 83.3792C45.2754 83.9569 44.9559 84.4042 44.4587 84.7208C43.0226 85.5847 41.5046 86.2639 39.9046 86.7583C38.3046 87.2528 36.5948 87.5 34.7754 87.5M67.3879 80.45C70.6268 80.45 73.3865 79.3083 75.6671 77.025C77.9448 74.7472 79.0837 71.9889 79.0837 68.75C79.0837 65.5111 77.9448 62.7528 75.6671 60.475C73.3865 58.1917 70.6268 57.05 67.3879 57.05C64.1518 57.05 61.3934 58.1917 59.1129 60.475C56.8323 62.7528 55.6921 65.5111 55.6921 68.75C55.6921 71.9889 56.8309 74.7486 59.1087 77.0292C61.3865 79.3097 64.1462 80.4486 67.3879 80.4458M67.3879 84.6125C62.9823 84.6125 59.2365 83.0708 56.1504 79.9875C53.0643 76.9042 51.5226 73.1583 51.5254 68.75C51.5282 64.3417 53.0698 60.5958 56.1504 57.5125C59.2309 54.4292 62.9768 52.8875 67.3879 52.8875C71.799 52.8875 75.5448 54.4292 78.6254 57.5125C81.7059 60.5958 83.2476 64.3417 83.2504 68.75C83.2504 70.5194 82.9684 72.2194 82.4046 73.85C81.8379 75.4833 81.0157 77.0097 79.9379 78.4292L90.1129 88.6083C90.5018 88.9972 90.6962 89.4611 90.6962 90C90.6962 90.5389 90.5018 91.0028 90.1129 91.3917C89.724 91.7806 89.2407 91.9764 88.6629 91.9792C88.0851 91.9819 87.6129 91.7875 87.2462 91.3958L77.0671 81.2958C75.6448 82.3764 74.1184 83.2 72.4879 83.7667C70.8546 84.3333 69.1546 84.6167 67.3879 84.6167" fill="#F89920"/>
</svg>
