<svg width="100" height="100" viewBox="0 0 100 100" fill="none" xmlns="http://www.w3.org/2000/svg">
<path d="M75.6337 47.3127C76.8628 48.5415 77.8378 50.0005 78.503 51.6062C79.1682 53.2119 79.5106 54.9329 79.5106 56.671C79.5106 58.409 79.1682 60.1301 78.503 61.7358C77.8378 63.3415 76.8628 64.8005 75.6337 66.0293L75.592 66.071L50.0003 91.6668L24.4003 66.0668L24.3628 66.0293C23.1049 64.7726 22.1135 63.275 21.4478 61.6261C20.7821 59.9773 20.4558 58.2112 20.4886 56.4333C20.5213 54.6555 20.9123 52.9025 21.6382 51.2793C22.3641 49.6561 23.41 48.196 24.7133 46.9864C26.0166 45.7767 27.5505 44.8424 29.2232 44.2394C30.8959 43.6363 32.6732 43.3768 34.4485 43.4765C36.2238 43.5762 37.9608 44.0331 39.5555 44.8196C41.1502 45.6062 42.5699 46.7064 43.7295 48.0543L50.0003 54.3293L56.042 48.2877C57.2133 46.8577 58.6711 45.689 60.3215 44.8569C61.972 44.0247 63.7785 43.5475 65.6246 43.456C67.4707 43.3646 69.3155 43.6609 71.0401 44.3258C72.7648 44.9908 74.331 46.0097 75.6378 47.3168L75.6337 47.3127ZM37.4962 20.8335C37.4962 22.475 37.8195 24.1005 38.4477 25.617C39.0759 27.1336 39.9966 28.5116 41.1573 29.6723C42.3181 30.8331 43.6961 31.7538 45.2126 32.382C46.7292 33.0102 48.3546 33.3335 49.9962 33.3335C51.6377 33.3335 53.2631 33.0102 54.7797 32.382C56.2963 31.7538 57.6743 30.8331 58.835 29.6723C59.9957 28.5116 60.9165 27.1336 61.5447 25.617C62.1728 24.1005 62.4962 22.475 62.4962 20.8335C62.4962 19.192 62.1728 17.5665 61.5447 16.05C60.9165 14.5334 59.9957 13.1554 58.835 11.9947C57.6743 10.8339 56.2963 9.91319 54.7797 9.285C53.2631 8.65682 51.6377 8.3335 49.9962 8.3335C48.3546 8.3335 46.7292 8.65682 45.2126 9.285C43.6961 9.91319 42.3181 10.8339 41.1573 11.9947C39.9966 13.1554 39.0759 14.5334 38.4477 16.05C37.8195 17.5665 37.4962 19.192 37.4962 20.8335Z" stroke="#9F3691" stroke-width="6.25"/>
</svg>
