<svg width="100" height="100" viewBox="0 0 100 100" fill="none" xmlns="http://www.w3.org/2000/svg">
<path d="M12.0062 64.3563C12.2343 56.6876 8.06245 53.8001 2.97495 51.8923C1.28432 58.4532 5.94995 63.9126 12.0062 64.3563ZM13.1578 30.1142C16.4015 23.1688 13.714 18.847 9.78276 15.086C5.6562 20.4485 7.77807 27.3048 13.1578 30.1142ZM14.9874 49.4485C14.764 41.7845 18.9312 38.8845 24.0218 36.9845C25.7062 43.5423 21.0437 49.0001 14.9874 49.4485ZM14.9874 61.2689C14.764 53.6048 18.9312 50.7126 24.0218 48.8079C25.7062 55.3642 21.0437 60.8235 14.9874 61.2689ZM14.9874 37.6329C14.764 29.9657 18.9312 27.0657 24.0218 25.161C25.7062 31.7251 21.0437 37.1813 14.9874 37.6329ZM12.0062 52.5376C12.2343 44.8735 8.06245 41.9735 2.97495 40.0735C1.28432 46.6313 5.94995 52.0907 12.0062 52.5376ZM12.0062 40.722C12.2343 33.0532 8.06245 30.1548 2.97495 28.247C1.28432 34.8142 5.94995 40.2657 12.0062 40.722ZM69.4578 98.5454H28.3468L48.9046 62.9267L69.4578 98.5454ZM36.514 93.8282H61.2921L48.9031 72.3673L36.514 93.8282ZM6.00464 74.2813L93.1 50.5876L91.8062 45.8017L4.70464 69.4985L6.00464 74.2813ZM67.4624 0.990723C67.4624 0.990723 68.1 13.5548 79.1124 12.4892C79.1124 12.4892 80.3546 1.99229 67.4624 0.990723ZM78.9921 41.8548C78.4007 42.6867 77.6181 43.3645 76.7103 43.8311C75.8024 44.2977 74.7957 44.5394 73.7749 44.536C72.0203 44.536 70.3015 43.711 69.1421 42.5548C66.7703 39.9673 63.6953 34.1829 63.6953 34.1829C61.9718 30.6845 61.0484 27.9782 61.0484 25.2423C61.0484 19.4142 65.7656 14.3595 71.6093 14.3595C74.371 14.3576 77.0229 15.4406 78.9937 17.3751C80.9628 15.4399 83.6141 14.3567 86.3749 14.3595C92.2171 14.3595 96.9343 19.4142 96.9343 25.2423C96.9343 27.9782 96.0093 30.6845 94.2875 34.1829C94.2875 34.1829 91.2125 39.9657 88.8406 42.5548C87.6812 43.711 85.9624 44.536 84.2062 44.536C83.1857 44.5392 82.1794 44.2973 81.2718 43.8307C80.3642 43.3642 79.5834 42.6865 78.9921 41.8548Z" fill="#8A38F5"/>
</svg>
