<svg width="100" height="100" viewBox="0 0 100 100" fill="none" xmlns="http://www.w3.org/2000/svg">
<path d="M22.917 85.417C31.5975 81.6865 39.7746 79.674 47.4482 79.3795C55.1191 79.0837 64.9975 80.4018 77.0837 83.3337" stroke="#086938" stroke-width="8.33333" stroke-linecap="round"/>
<path d="M48.0105 91.6668C46.4133 72.0002 47.0765 56.7224 50.0001 45.8335" stroke="#086938" stroke-width="8.33333" stroke-linecap="round"/>
<path d="M50.0002 48.2835C53.3127 35.746 59.146 28.2696 67.5002 25.8543C75.853 23.4377 83.9085 24.5446 91.6668 29.1752C91.7057 39.3668 87.2821 46.8328 78.396 51.5731C69.5071 56.3148 60.0418 55.2182 50.0002 48.2835ZM49.5668 46.071C51.303 31.0988 47.8238 20.5537 39.1293 14.4356C30.4349 8.31754 20.3668 6.95018 8.92517 10.3335C6.92795 24.1474 9.98281 34.5918 18.0898 41.6668C26.1981 48.7418 36.6905 50.2099 49.5668 46.071Z" stroke="#086938" stroke-width="8.33333" stroke-linejoin="round"/>
</svg>
