<svg width="100" height="100" viewBox="0 0 100 100" fill="none" xmlns="http://www.w3.org/2000/svg">
<path d="M21.0793 48.9252C29.071 49.9085 36.3793 43.971 37.4002 35.6668C38.421 27.3627 28.9168 19.3585 32.3668 8.3335C15.271 10.8085 9.37933 24.5877 8.45016 32.1085C7.42933 40.4127 13.0877 47.9418 21.0793 48.9252Z" stroke="#086938" stroke-width="6.25" stroke-linejoin="round"/>
<path d="M29.1669 83.3335C21.1461 63.8502 19.8752 46.6418 21.3877 33.3335" stroke="#086938" stroke-width="6.25" stroke-linecap="round" stroke-linejoin="round"/>
<path d="M39.6172 73.6169C44.5131 83.5836 56.3381 86.3336 66.0256 79.7586C75.7131 73.1836 77.2422 54.9586 91.6672 48.6044C76.2714 31.5503 57.0714 37.7086 48.3006 43.6628C38.6089 50.2378 34.7214 63.6503 39.6172 73.6211V73.6169Z" stroke="#086938" stroke-width="6.25" stroke-linejoin="round"/>
<path d="M25 91.6668C34.9083 74.6002 46.9333 64.2918 58.3333 58.3335" stroke="#086938" stroke-width="6.25" stroke-linecap="round" stroke-linejoin="round"/>
</svg>
