<svg width="64" height="64" viewBox="0 0 64 64" fill="none" xmlns="http://www.w3.org/2000/svg">
<path d="M17.9999 9.125C17.0624 9.125 15.7999 9.93 14.4999 11.6987C13.1999 13.4625 11.9086 16.075 10.8086 19.125C8.72613 24.9125 7.30363 32.3 7.15363 38.875H12.8874C12.9874 32.05 13.9624 24.4875 15.6624 18.45C16.5624 15.25 17.6374 12.4863 18.9624 10.425C19.0874 10.2363 19.2124 10.055 19.3374 9.87625C19.2499 9.77 19.1749 9.675 19.0999 9.59625C18.7499 9.2525 18.4749 9.125 17.9999 9.125ZM23.9999 9.125C23.0624 9.125 21.9749 9.885 20.8499 11.6375C19.7374 13.3875 18.6874 16 17.8374 19.05C16.2124 24.8375 15.2499 32.25 15.1499 38.875H22.8749C22.9249 32.1 23.4374 24.5625 24.6499 18.525C25.1624 15.975 25.7749 13.7 26.5874 11.8313C26.5374 11.7125 26.4874 11.5975 26.4374 11.4862C26.0624 10.6275 25.6374 10.0038 25.2249 9.635C24.8124 9.26625 24.4749 9.125 23.9999 9.125ZM31.9999 9.125C31.0624 9.125 30.1499 9.8325 29.2124 11.5662C28.2749 13.3 27.4624 15.9125 26.8499 18.975C25.6874 24.775 25.1999 32.2 25.1499 38.875H38.8499C38.7999 32.2 38.3124 24.775 37.1499 18.975C36.5374 15.9125 35.7249 13.3 34.7874 11.5662C33.8499 9.8325 32.9374 9.125 31.9999 9.125ZM39.9999 9.125C39.5249 9.125 39.1874 9.26625 38.7749 9.635C38.3624 10.0038 37.9374 10.6275 37.5624 11.4862C37.5124 11.5975 37.4624 11.7125 37.4124 11.8313C38.2249 13.7 38.8374 15.975 39.3499 18.525C40.5624 24.5625 41.0749 32.1 41.1249 38.875H48.8499C48.7499 32.25 47.7874 24.8375 46.1624 19.05C45.3124 16 44.2624 13.3875 43.1499 11.6375C42.0249 9.885 40.9374 9.125 39.9999 9.125ZM45.9999 9.125C45.5374 9.125 45.2499 9.2525 44.8999 9.59625C44.8249 9.675 44.7499 9.77 44.6624 9.87625C44.7874 10.055 44.9124 10.2363 45.0374 10.425C46.3624 12.4863 47.4374 15.25 48.3374 18.45C50.0374 24.4875 51.0124 32.05 51.1124 38.875H56.8499C56.6999 32.3 55.2749 24.9125 53.1874 19.125C52.0874 16.075 50.7999 13.4625 49.4999 11.6987C48.1999 9.93 46.9374 9.125 45.9999 9.125ZM23.4624 11.045C23.9374 11.0513 24.0624 11.7613 23.6874 12.5C21.9249 15.65 19.7874 21.3125 18.5124 24.7625C18.4249 21.3625 20.7624 14.1 22.7749 11.4012C23.0499 11.1475 23.2874 11.0425 23.4624 11.045ZM16.4749 11.1263C16.8624 11.1388 17.1749 11.6325 16.9999 12.1038C14.0249 15.7 12.9874 19.3125 11.5111 22.9125C12.0274 18.1875 13.7749 14.8125 15.9374 11.4563C16.0999 11.215 16.2999 11.1213 16.4749 11.1263ZM40.5749 11.3237C40.7624 11.3237 40.9624 11.3338 41.1749 11.3538C39.7624 12.3525 39.3749 12.9625 39.1374 13.9125C38.6874 12.235 38.8124 11.3225 40.5749 11.3237ZM31.7499 11.5387C32.1624 11.5462 32.4249 12.0025 32.2749 12.5125C30.2499 17.3625 28.2749 22.35 27.6499 27.65C27.0874 23.8875 27.8499 16.625 30.8999 12.0962C31.1999 11.6912 31.5124 11.5337 31.7499 11.5387ZM5.19238 41.125C5.48613 43.7875 6.84488 45.2375 8.47488 46.875H55.5249C57.1499 45.2375 58.5124 43.7875 58.8124 41.125H5.19238ZM27.9999 49.125V55.5L17.9999 61.5H45.9999L35.9999 55.5V49.125H27.9999Z" fill="#FFEBD6"/>
<path d="M13.3333 50.6668L31.9999 32.0002M31.9999 32.0002L50.6666 13.3335M31.9999 32.0002L13.3333 13.3335M31.9999 32.0002L50.6666 50.6668" stroke="#EA236F" stroke-width="4" stroke-linecap="round" stroke-linejoin="round"/>
</svg>
