<svg width="64" height="64" viewBox="0 0 64 64" fill="none" xmlns="http://www.w3.org/2000/svg">
<path d="M5.33325 58.6668L42.6666 21.3335M42.6666 21.3335H47.9999C50.8289 21.3335 53.542 20.2097 55.5424 18.2093C57.5428 16.2089 58.6666 13.4958 58.6666 10.6668V5.3335H53.3333C50.5043 5.3335 47.7912 6.4573 45.7908 8.45769C43.7904 10.4581 42.6666 13.1712 42.6666 16.0002V21.3335ZM9.25325 33.4135L13.3333 29.3335L17.4133 33.4135C19.1557 35.1628 20.134 37.5312 20.134 40.0002C20.134 42.4692 19.1557 44.8376 17.4133 46.5868L13.3333 50.6668L9.25325 46.5868C7.51085 44.8376 6.53255 42.4692 6.53255 40.0002C6.53255 37.5312 7.51085 35.1628 9.25325 33.4135ZM19.9199 22.7468L23.9999 18.6668L28.0799 22.7468C29.8223 24.4961 30.8006 26.8645 30.8006 29.3335C30.8006 31.8025 29.8223 34.1709 28.0799 35.9202L23.9999 40.0002L19.9199 35.9202C18.1775 34.1709 17.1992 31.8025 17.1992 29.3335C17.1992 26.8645 18.1775 24.4961 19.9199 22.7468ZM30.5866 12.0802L34.6666 8.00016L38.7466 12.0802C40.489 13.8294 41.4673 16.1978 41.4673 18.6668C41.4673 21.1358 40.489 23.5042 38.7466 25.2535L34.6666 29.3335L30.5866 25.2535C28.8442 23.5042 27.8659 21.1358 27.8659 18.6668C27.8659 16.1978 28.8442 13.8294 30.5866 12.0802Z" stroke="#FFEBD6" stroke-width="5.33333" stroke-linecap="round" stroke-linejoin="round"/>
<path d="M30.5866 46.5867L34.6666 50.6667L30.5866 54.7468C28.8373 56.4892 26.4689 57.4674 23.9999 57.4674C21.5309 57.4674 19.1625 56.4892 17.4133 54.7468L13.3333 50.6667L17.4133 46.5867C19.1625 44.8443 21.5309 43.866 23.9999 43.866C26.4689 43.866 28.8373 44.8443 30.5866 46.5867ZM41.2533 35.9201L45.3333 40.0001L41.2533 44.0801C39.504 45.8225 37.1356 46.8008 34.6666 46.8008C32.1976 46.8008 29.8292 45.8225 28.0799 44.0801L23.9999 40.0001L28.0799 35.9201C29.8292 34.1777 32.1976 33.1994 34.6666 33.1994C37.1356 33.1994 39.504 34.1777 41.2533 35.9201ZM51.9199 25.2534L55.9999 29.3334L51.9199 33.4134C50.1706 35.1558 47.8022 36.1341 45.3333 36.1341C42.8643 36.1341 40.4959 35.1558 38.7466 33.4134L34.6666 29.3334L38.7466 25.2534C40.4959 23.511 42.8643 22.5327 45.3333 22.5327C47.8022 22.5327 50.1706 23.511 51.9199 25.2534Z" stroke="#FFEBD6" stroke-width="5.33333" stroke-linecap="round" stroke-linejoin="round"/>
<path d="M13.3333 50.6668L31.9999 32.0002M31.9999 32.0002L50.6666 13.3335M31.9999 32.0002L13.3333 13.3335M31.9999 32.0002L50.6666 50.6668" stroke="#EA236F" stroke-width="4" stroke-linecap="round" stroke-linejoin="round"/>
</svg>
