<svg width="64" height="64" viewBox="0 0 64 64" fill="none" xmlns="http://www.w3.org/2000/svg">
<path d="M57.2427 14.5548C56.5586 12.7339 56.0757 10.8435 55.8027 8.9175C55.8267 8.33408 55.7134 7.75319 55.4721 7.2215C54.2703 8.2585 53.2914 9.52857 52.5947 10.9548C51.9272 12.318 51.3212 13.7106 50.7787 15.1282C49.4666 18.6263 47.8077 21.9844 45.8267 25.1522C44.3649 27.6528 42.9723 30.1933 41.6507 32.7708C40.2283 35.5335 38.646 38.2109 36.9121 40.7895C33.4654 45.4741 31.0001 50.8064 29.6641 56.4668C29.1467 58.9895 29.1307 58.9442 30.5387 58.2828C31.2214 57.9762 33.4854 57.2162 35.5387 56.6322C41.9761 54.7655 43.0054 53.9202 44.6427 49.0855C45.1737 46.6166 46.5196 44.3982 48.4641 42.7868C53.7467 38.1415 53.6987 38.2348 53.4641 33.7788C53.1943 32.3912 53.2681 30.9586 53.679 29.6061C54.0899 28.2535 54.8254 27.022 55.8214 26.0188C59.1761 21.6002 59.2934 20.6402 57.2427 14.5548ZM41.6641 49.6508C41.2274 50.8617 40.4623 51.9272 39.4544 52.7278C38.4466 53.5285 37.2357 54.0327 35.9574 54.1842C34.3574 54.4508 33.5574 54.0659 33.5574 53.0295C33.5574 52.0375 33.7921 51.8722 35.3974 51.7308C36.7371 51.622 38.0048 51.0798 39.009 50.1864C40.0131 49.2929 40.6989 48.0968 40.9627 46.7788C41.1521 46.2135 41.7414 46.2828 41.9067 46.8962C42.1147 47.8172 42.0299 48.7803 41.6641 49.6508ZM50.2747 37.5282C49.547 39.2392 48.2687 40.6582 46.6427 41.5602C45.8161 41.7735 45.2507 41.4188 45.1547 40.6642C45.1094 40.1922 45.3201 39.9095 46.2641 39.2268C47.8172 37.8236 48.9383 36.0069 49.4961 33.9895L49.8721 33.0455L50.3201 33.9895C50.6074 34.5362 50.7547 35.1456 50.7487 35.7632C50.7426 36.3808 50.5834 36.9872 50.2854 37.5282H50.2747ZM55.3921 23.1282C54.9921 25.2268 51.8774 26.9948 51.3574 25.4162C51.1707 24.8028 51.3814 24.3788 52.1841 23.9282C53.8107 23.0108 54.2587 20.8402 53.3867 18.2695C53.0561 17.3015 53.0107 16.8775 53.1974 16.6882C53.6454 16.2402 53.9281 16.4988 54.6614 17.9628C55.4229 19.5669 55.6813 21.3638 55.4027 23.1175L55.3921 23.1282ZM43.6107 16.1362C42.4873 17.2092 41.7006 18.5861 41.3467 20.0988C41.3982 20.5375 41.5846 20.9493 41.8801 21.2775C42.3281 21.7948 42.6801 21.9388 43.7467 22.0322L45.0427 22.1255L46.7307 18.7548C47.4223 17.4422 48.0289 16.0865 48.5467 14.6962C48.7121 14.0828 48.6881 14.0588 47.6987 14.0588C46.9134 14.1158 46.1474 14.3289 45.4454 14.6856C44.7435 15.0423 44.1198 15.5354 43.6107 16.1362ZM34.4107 34.6962C36.8276 33.2202 38.9608 31.3237 40.7094 29.0962C41.7599 27.6731 42.6759 26.1555 43.4454 24.5628C43.3974 24.5388 42.8321 24.3975 42.1947 24.2322C41.7013 24.1727 41.2252 24.0132 40.7955 23.7634C40.3658 23.5136 39.9916 23.1788 39.6958 22.7794C39.4 22.38 39.1888 21.9244 39.0752 21.4406C38.9615 20.9568 38.9477 20.4548 39.0347 19.9655C39.2655 17.9429 40.2512 16.082 41.7947 14.7548C44.5521 12.0562 47.7974 10.8535 49.1041 12.0322C49.3867 12.2988 49.6374 12.4322 49.6721 12.3868C49.7067 12.3415 50.0721 11.5868 50.5201 10.7122C51.4571 8.8868 52.7769 7.28504 54.3894 6.01616L55.3307 5.3335L54.4107 5.3575C51.5814 5.42683 49.6107 6.58416 45.3067 10.6908C42.7983 13.7534 39.2276 15.7578 35.3067 16.3042C32.4293 16.6659 29.7263 17.8818 27.5467 19.7948C26.7526 20.811 26.0206 21.8743 25.3547 22.9788C24.5002 24.7023 23.2849 26.2217 21.7914 27.4341C20.2979 28.6465 18.561 29.5235 16.6987 30.0055C15.2618 30.5391 13.8529 31.1452 12.4774 31.8215C9.32197 33.689 7.00134 36.6938 5.99207 40.2188C5.30673 42.2722 5.33073 42.3522 6.39207 42.3522C7.63804 42.4694 8.87524 42.6662 10.0961 42.9415C17.8294 44.5682 19.5761 44.1442 24.1281 39.4988C25.1177 38.4633 26.1819 37.5016 27.3121 36.6215C28.3867 36.2457 29.491 35.9612 30.6134 35.7708C31.9111 35.537 33.1829 35.1771 34.4107 34.6962ZM19.1281 41.8188C18.1383 42.3734 16.9998 42.6047 15.8721 42.4802C14.8532 42.5826 13.8257 42.4036 12.9014 41.9628C12.0673 41.5385 11.3581 40.9042 10.8437 40.1223C10.3294 39.3405 10.0276 38.4381 9.96807 37.5042C10.1974 36.1845 10.769 34.9482 11.6259 33.9187C12.4827 32.8892 13.5947 32.1026 14.8507 31.6375C16.3038 31.2012 17.8518 31.1928 19.3094 31.6135C19.7334 31.9442 19.6854 31.9895 18.5787 32.4615C16.9758 32.9873 15.4756 33.7856 14.1441 34.8215C11.9494 36.7548 12.0454 38.9468 14.3547 39.9148C15.7978 40.2544 17.3148 40.0622 18.6276 39.3735C19.9403 38.6848 20.9607 37.5458 21.5014 36.1655C22.2107 34.7015 22.1627 33.9708 21.2907 33.5228C20.5121 33.1228 20.3947 32.6748 20.9601 32.1308C21.4561 31.6375 21.5974 31.6588 22.4454 32.3682C25.0001 34.4855 23.1601 39.6962 19.1281 41.8188ZM25.5441 32.8588C25.0704 32.4231 24.6982 31.8887 24.4535 31.2934C24.2088 30.6981 24.0977 30.0564 24.1281 29.4135C24.3139 27.5068 25.0508 25.6953 26.2489 24.2004C27.4469 22.7054 29.0543 21.5916 30.8747 20.9948C31.4634 20.6611 32.1293 20.4876 32.8059 20.4919C33.4826 20.4961 34.1463 20.6778 34.7307 21.0188C35.5307 21.7495 35.6987 21.6322 31.8294 23.0455C30.5551 23.5249 29.4211 24.3155 28.5305 25.3453C27.64 26.3751 27.0213 27.6114 26.7307 28.9415C26.7426 29.4688 26.8927 29.9837 27.166 30.4349C27.4393 30.886 27.8262 31.2574 28.2881 31.5122C29.3991 31.7581 30.5525 31.7372 31.6539 31.4512C32.7552 31.1652 33.7731 30.6222 34.6241 29.8668C37.1947 27.8855 37.7601 26.1655 36.2747 24.8215C35.2374 23.8775 35.1414 22.9095 36.0374 22.5095C36.8374 22.1548 37.7121 22.7762 38.4667 24.2295C38.8351 25.0581 38.9872 25.9666 38.9088 26.8699C38.8305 27.7733 38.5242 28.642 38.0187 29.3948C37.0287 31.2046 35.4715 32.639 33.5867 33.4775C32.5429 34.0396 31.3749 34.3312 30.1894 34.3255C29.3545 34.4527 28.5015 34.3866 27.6962 34.1323C26.8908 33.878 26.1546 33.4424 25.5441 32.8588Z" fill="#FFEBD6"/>
<path d="M13.3333 50.6668L31.9999 32.0002M31.9999 32.0002L50.6666 13.3335M31.9999 32.0002L13.3333 13.3335M31.9999 32.0002L50.6666 50.6668" stroke="#EA236F" stroke-width="4" stroke-linecap="round" stroke-linejoin="round"/>
</svg>
