<svg width="64" height="64" viewBox="0 0 64 64" fill="none" xmlns="http://www.w3.org/2000/svg">
<path fill-rule="evenodd" clip-rule="evenodd" d="M31.648 20.8201C26.444 15.6121 19.94 13.4321 14.856 12.5401C12.7425 12.166 10.6022 11.9627 8.45602 11.9321C7.64489 11.9212 6.83363 11.9412 6.02402 11.9921L5.87602 12.0041H5.83602L5.82002 12.0081H5.81202L4.29202 12.1521L4.03202 13.6561L4.02802 13.6761L4.02002 13.7241L3.98802 13.9041L3.89602 14.5561C3.46417 17.9152 3.35167 21.3077 3.56002 24.6881C3.95202 30.7321 5.59202 38.4241 10.936 43.7681C16.16 48.9921 22.528 51.0281 27.496 51.7721C29.6468 52.0948 31.8223 52.222 33.996 52.1521V48.8321L18.584 33.4121L21.416 30.5801L34 43.1721V23.7041C33.312 22.6641 32.528 21.7001 31.648 20.8201ZM38 29.2001V43.8401L44.752 38.4401L47.248 41.5601L38 48.9601V52.1121C39.4626 52.1295 40.9247 52.0466 42.376 51.8641C46.012 51.3961 50.736 50.0961 54.248 46.5841C57.792 43.0361 59.156 37.6801 59.696 33.5481C60.0142 31.0575 60.1185 28.5444 60.008 26.0361L60 25.9081V25.8681L59.996 25.8601L59.876 24.2481L58.284 24.0201H58.268L58.232 24.0121L58.112 23.9961L57.668 23.9441C55.4325 23.7178 53.1819 23.6804 50.94 23.8321C47.032 24.1201 41.88 25.1561 38.56 28.6161L38.4 28.7761L38 29.2001Z" fill="#FFEBD6"/>
<path d="M13.3333 50.6668L31.9999 32.0002M31.9999 32.0002L50.6666 13.3335M31.9999 32.0002L13.3333 13.3335M31.9999 32.0002L50.6666 50.6668" stroke="#EA236F" stroke-width="4" stroke-linecap="round" stroke-linejoin="round"/>
</svg>
