<svg width="64" height="64" viewBox="0 0 64 64" fill="none" xmlns="http://www.w3.org/2000/svg">
<path fill-rule="evenodd" clip-rule="evenodd" d="M14.8206 7.82175C17.6869 6.57832 19.9635 6.62861 21.7646 7.44689C23.616 8.28804 25.4538 10.1715 26.9258 13.5543C27.4804 14.8435 27.8553 16.032 28.0503 17.12C28.3155 18.5372 29.5909 19.5338 31.0309 19.4515C32.7955 19.3418 34.4549 19.8309 35.9589 21.0926C35.2732 21.5345 34.6393 22.048 34.0572 22.6332C32.5943 24.096 31.5795 25.8789 30.9715 27.8995C30.6809 28.8694 30.4804 29.8641 30.3726 30.8709C30.2424 32.0565 30.218 33.2513 30.2995 34.4412C29.5254 34.4412 28.7528 34.4458 27.9818 34.4549C27.4058 30.208 26.3955 25.2389 22.2446 20.3795C22.0036 20.0855 21.7064 19.8426 21.3703 19.665C21.0342 19.4873 20.6661 19.3785 20.2874 19.345C19.9088 19.3114 19.5272 19.3538 19.1651 19.4695C18.8031 19.5853 18.4677 19.7721 18.1788 20.0191C17.8898 20.2661 17.653 20.5682 17.4823 20.9079C17.3116 21.2475 17.2104 21.6178 17.1846 21.9971C17.1588 22.3763 17.2089 22.7569 17.3321 23.1166C17.4552 23.4762 17.6489 23.8076 17.9018 24.0915C20.8183 27.5063 21.6732 30.8663 22.2172 34.5509C18.249 34.6403 14.2821 34.7836 10.3178 34.9806C9.63205 31.68 10.4732 29.2938 12.256 27.5978C12.7605 27.1178 13.0723 26.4702 13.1329 25.7766C13.1935 25.0829 12.9987 24.3911 12.5852 23.8309C11.8523 22.8176 11.2373 21.7241 10.752 20.5715C9.28005 17.1886 9.16119 14.5646 9.81033 12.6355C10.4366 10.7612 11.9589 9.06975 14.8206 7.82175ZM58.5143 36.2423C58.682 35.2305 58.7642 34.1776 58.7612 33.0835C58.7612 28.9098 57.5818 25.248 54.9623 22.6332C52.3429 20.0183 48.6812 18.8343 44.5075 18.8343C43.5932 18.8343 42.7048 18.8922 41.8423 19.008C39.5338 16.0915 36.5669 14.2538 33.1109 13.8195C32.8461 12.9542 32.5301 12.1055 32.1646 11.2778C30.336 7.06746 27.6709 3.85375 24.128 2.24004C20.5349 0.612608 16.5349 0.850322 12.5486 2.58289C8.55776 4.31089 5.65033 7.07204 4.39319 10.8115C3.15433 14.5006 3.68005 18.6423 5.50862 22.848C5.88348 23.7014 6.28881 24.5105 6.72462 25.2755C4.42062 28.4572 3.86748 32.3703 4.81376 36.5395C3.61221 37.132 2.62007 38.0771 1.96985 39.2485C1.31964 40.4199 1.04231 41.7617 1.1749 43.0949C1.78748 49.1612 3.21376 54.4549 8.13262 58.0069C12.8458 61.408 20.3429 62.8572 32 62.8572C43.6572 62.8572 51.1498 61.4126 55.8675 58.0069C60.7863 54.4595 62.2126 49.1658 62.8252 43.0995C62.9657 41.6407 62.6189 40.1766 61.8389 38.9359C61.0589 37.6952 59.8898 36.748 58.5143 36.2423ZM36.0321 34.4595C41.6682 34.5113 47.3028 34.6729 52.9326 34.944C53.0088 34.3741 53.0469 33.7539 53.0469 33.0835C53.0469 29.9612 52.1783 27.9315 50.9212 26.6743C49.6641 25.4172 47.6298 24.5486 44.5075 24.5486C43.3098 24.5547 42.2644 24.6736 41.3715 24.9052L41.3075 24.9235C40.9741 25.0115 40.6459 25.1184 40.3246 25.2435C39.7151 25.4873 39.1818 25.7814 38.7246 26.1258C37.9325 26.7183 37.3008 27.4993 36.8869 28.3978C36.32 29.5726 35.9726 31.1086 35.9726 33.0835C35.9726 33.568 35.9924 34.0298 36.0321 34.4595Z" fill="#FFEBD6"/>
</svg>
