<svg width="28" height="28" viewBox="0 0 28 28" fill="none" xmlns="http://www.w3.org/2000/svg">
<path d="M14 2.51562C11.535 2.51562 9.51562 4.53502 9.51562 7C9.51562 8.41159 10.1786 9.67619 11.2075 10.5H7L1.75 26.25H26.25L21 10.5H16.7925C17.8214 9.67619 18.4844 8.41159 18.4844 7C18.4844 4.53502 16.465 2.51562 14 2.51562ZM14 4.48438C15.401 4.48438 16.5156 5.59902 16.5156 7C16.5156 8.40098 15.401 9.51562 14 9.51562C12.599 9.51562 11.4844 8.40098 11.4844 7C11.4844 5.59902 12.599 4.48438 14 4.48438ZM9.50387 15.5832H10.789V17.4023L12.6415 15.5831H14.1335L11.7336 17.9429L14.3805 20.5665H12.7717L10.789 18.6039V20.5665H9.50387V15.5832ZM16.0628 16.7448C16.3231 16.7447 16.5523 16.7959 16.7503 16.8982C16.9483 17.0006 17.1297 17.1619 17.2945 17.3822V16.8282H18.4961V20.1894C18.4961 20.7902 18.3058 21.2486 17.9253 21.5646C17.547 21.8828 16.9973 22.0419 16.2763 22.0419C16.0428 22.0419 15.8169 22.0241 15.5987 21.9885C15.3755 21.9516 15.1556 21.8969 14.9412 21.825V20.8936C15.1504 21.0138 15.3552 21.1029 15.5553 21.1607C15.7557 21.2208 15.9571 21.2509 16.1596 21.2509C16.5512 21.2509 16.8383 21.1652 17.0207 20.9938C17.2032 20.8225 17.2945 20.5544 17.2945 20.1895V19.9324C17.1298 20.1505 16.9485 20.3107 16.7503 20.413C16.5523 20.5153 16.3231 20.5665 16.0628 20.5666C15.6066 20.5666 15.2294 20.3875 14.9313 20.0292C14.633 19.6687 14.4839 19.2104 14.4839 18.6541C14.4839 18.0955 14.633 17.6382 14.9313 17.2822C15.2294 16.9239 15.6066 16.7448 16.0628 16.7448ZM16.5067 17.6059C16.2597 17.6059 16.0672 17.6971 15.9292 17.8796C15.7913 18.0621 15.7223 18.3203 15.7223 18.6541C15.7223 18.9967 15.789 19.2571 15.9225 19.435C16.0561 19.6108 16.2508 19.6988 16.5067 19.6988C16.7559 19.6987 16.9495 19.6075 17.0875 19.425C17.2255 19.2425 17.2945 18.9855 17.2944 18.654C17.2944 18.3202 17.2254 18.0621 17.0874 17.8796C16.9495 17.6971 16.7559 17.6059 16.5067 17.6059H16.5067Z" fill="#3F8133"/>
</svg>
