<svg width="28" height="28" viewBox="0 0 28 28" fill="none" xmlns="http://www.w3.org/2000/svg">
<path fill-rule="evenodd" clip-rule="evenodd" d="M13.3642 3.5H9.37767V3.77067C9.37417 5.36433 9.37183 6.90025 10.2235 8.33233C10.8162 9.32808 11.6976 10.0275 12.586 10.7327C12.7167 10.8358 12.8469 10.9396 12.9768 11.0443C14.7385 12.4658 13.636 14.7157 11.7822 15.2442C11.2087 15.4076 10.6674 15.5289 10.1588 15.6421C8.148 16.0901 6.64883 16.4237 5.65075 18.8638C5.38645 19.5088 5.25033 20.1991 5.25 20.8962V24.5H9.23242V20.7398C9.23242 19.7079 10.3997 19.0773 11.3033 19.5224C13.6704 20.6879 16.5054 21.0589 19.0441 20.0742C20.7579 19.4098 21.9106 18.1545 22.8445 16.6285C24.2077 14.4002 24.262 11.5529 22.9816 9.27617C21.8598 7.28058 20.2994 5.32467 17.773 5.32467C17.2643 5.32467 16.7172 5.523 16.1776 5.71725C15.2279 6.06142 14.3022 6.39567 13.6517 5.62508C13.286 5.19283 13.3192 4.53658 13.3484 3.95383C13.3566 3.79517 13.3647 3.64175 13.3642 3.5ZM21.6749 13.895C22.358 14.3237 22.7016 15.1801 22.5073 15.8923C23.1764 16.7253 19.5767 18.6818 17.584 19.7651C17.1057 20.0247 16.7195 20.2341 16.5077 20.3659C16.3959 20.1861 16.295 19.9997 16.2056 19.8077C15.4811 19.6665 14.8651 18.9793 14.7834 18.1767C14.7017 17.374 15.1818 16.7335 15.8842 16.6542C15.9817 16.2904 16.1346 15.9437 16.3374 15.6263C15.9956 14.8913 16.1665 14.0572 16.7679 13.6838C17.3693 13.3105 18.1924 13.5263 18.6999 14.1581C19.0743 14.1168 19.4529 14.1333 19.8222 14.2071C20.2043 13.6127 20.9918 13.4662 21.6749 13.895Z" fill="#3F8133"/>
<path fill-rule="evenodd" clip-rule="evenodd" d="M22.8445 16.6285C24.2077 14.4002 24.262 11.5529 22.9816 9.27617C21.8598 7.28058 20.2994 5.32467 17.773 5.32467C17.2643 5.32467 16.7172 5.523 16.1776 5.71725C15.2279 6.06142 14.3022 6.39567 13.6517 5.62508C13.4318 5.36492 13.356 5.02425 13.3368 4.66667C13.3251 4.42983 13.3367 4.186 13.3484 3.95383C13.3573 3.80271 13.3626 3.65138 13.3642 3.5H9.37825V3.77067C9.37747 3.95033 9.37747 4.12922 9.37825 4.30733C9.37825 4.4275 9.37942 4.54728 9.38175 4.66667C9.4045 5.94067 9.53342 7.17092 10.2247 8.33233C10.8167 9.32808 11.6982 10.0275 12.5872 10.7327C12.7174 10.8358 12.8473 10.9396 12.9768 11.0443C14.7391 12.4658 13.636 14.7157 11.7827 15.2442C11.2093 15.4076 10.668 15.5289 10.1593 15.6421C8.14858 16.0901 6.64942 16.4237 5.65133 18.8638C5.38683 19.5088 5.25052 20.1991 5.25 20.8962V24.5H9.23242V20.7398C9.23242 19.7079 10.3997 19.0773 11.3033 19.5224C13.6704 20.6879 16.5054 21.0589 19.0441 20.0742C20.7579 19.4098 21.9106 18.1545 22.8445 16.6285ZM8.06575 23.3333V20.7398C8.06575 18.7332 10.2416 17.6995 11.8183 18.4759C13.9621 19.5312 16.4529 19.8281 18.6229 18.9869C20.0095 18.4491 20.9895 17.4247 21.8488 16.0195C22.9921 14.1511 23.0376 11.7553 21.9648 9.84783C20.8577 7.8785 19.5947 6.49133 17.773 6.49133C17.6126 6.49133 17.3868 6.53683 17.0438 6.65C16.8939 6.699 16.7428 6.75383 16.5731 6.81508L16.5165 6.8355C16.3316 6.90258 16.1239 6.97667 15.9139 7.042C15.5114 7.16742 14.9829 7.29867 14.4264 7.25025C13.811 7.196 13.2247 6.92767 12.7604 6.37817C12.2792 5.80825 12.1876 5.12983 12.1695 4.66667H10.5502C10.5735 5.86717 10.6861 6.82792 11.2268 7.73558C11.7017 8.53475 12.4011 9.09183 13.3035 9.81225C13.4342 9.91569 13.5693 10.0236 13.7089 10.136C14.9847 11.1656 15.2839 12.6082 14.8347 13.8705C14.413 15.0529 13.3694 16.0049 12.1024 16.366C11.4922 16.5404 10.9101 16.6699 10.3997 16.7837L10.0584 16.8595C9.45175 16.9977 8.97575 17.1208 8.56392 17.2906C7.8435 17.5881 7.24267 18.053 6.7305 19.3054C6.52356 19.8102 6.41696 20.3506 6.41667 20.8962V23.3333H8.06575Z" fill="#3F8133"/>
</svg>
