<svg width="28" height="28" viewBox="0 0 28 28" fill="none" xmlns="http://www.w3.org/2000/svg">
<path d="M16.625 4.9585C16.625 5.47742 16.4712 5.98471 16.183 6.41626C15.8948 6.84781 15.4852 7.18427 15.0059 7.38312C14.5266 7.58197 13.9991 7.63429 13.49 7.53348C12.981 7.43266 12.5133 7.18323 12.1459 6.8167C11.7786 6.45017 11.5281 5.98299 11.4262 5.47417C11.3242 4.96536 11.3754 4.43774 11.5731 3.95799C11.7709 3.47823 12.1065 3.06786 12.5374 2.77872C12.9683 2.48958 13.4752 2.33465 13.9942 2.3335H14.0058C14.701 2.33504 15.3672 2.61228 15.8582 3.1044C16.3492 3.59652 16.625 4.26331 16.625 4.9585Z" fill="#3F8133"/>
<path fill-rule="evenodd" clip-rule="evenodd" d="M9.33325 12.8337C9.7585 12.8337 10.1569 12.7199 10.4999 12.5216V16.917V16.9152L10.4988 16.9222C10.4947 16.9491 10.4801 17.0506 10.4258 17.2542C10.3646 17.4863 10.2718 17.7797 10.154 18.121L10.0898 18.3053C9.55208 18.5581 9.13104 19.0066 8.91262 19.5592C8.69419 20.1119 8.69484 20.727 8.91442 21.2792C8.6188 21.9809 8.31604 22.6795 8.00617 23.3751L7.97759 23.4381C7.85841 23.7025 7.842 24.0018 7.93154 24.2777C8.02109 24.5535 8.21017 24.7861 8.46191 24.9301C8.71366 25.0741 9.01001 25.1192 9.29319 25.0566C9.57637 24.9939 9.82607 24.8281 9.99359 24.5913L11.3049 22.7398C11.6389 22.708 11.9622 22.6045 12.2526 22.4364C12.543 22.2683 12.7937 22.0396 12.9876 21.7658C13.1816 21.492 13.3142 21.1796 13.3765 20.8499C13.4387 20.5202 13.4291 20.1809 13.3483 19.8552L13.9999 18.9353L18.0063 24.5913C18.1738 24.8281 18.4235 24.9939 18.7066 25.0566C18.9898 25.1192 19.2862 25.0741 19.5379 24.9301C19.7897 24.7861 19.9787 24.5535 20.0683 24.2777C20.1578 24.0018 20.1414 23.7025 20.0223 23.4381L19.9937 23.3751C19.8664 23.0914 19.741 22.8069 19.6174 22.5217C19.3736 21.9617 19.0493 21.2045 18.7255 20.4129C18.4125 19.6567 18.1192 18.8925 17.8458 18.121C17.745 17.8353 17.6544 17.5462 17.574 17.2542C17.5198 17.05 17.5052 16.9491 17.5011 16.9222L17.5005 16.9164C17.5005 16.9145 17.5003 16.9147 17.4999 16.917V15.4382C17.8207 15.2531 18.0928 14.9944 18.2937 14.6833C18.4946 14.3722 18.6186 14.0178 18.6555 13.6493C18.6923 13.2808 18.6409 12.9088 18.5055 12.5641C18.3701 12.2194 18.1545 11.9119 17.8768 11.667H20.9999C21.3093 11.667 21.6061 11.5441 21.8249 11.3253C22.0437 11.1065 22.1666 10.8097 22.1666 10.5003C22.1666 10.1909 22.0437 9.89416 21.8249 9.67537C21.6061 9.45658 21.3093 9.33366 20.9999 9.33366H11.3545C11.1497 8.97887 10.855 8.68427 10.5002 8.47947C10.1454 8.27467 9.74293 8.1669 9.33325 8.16699C8.46992 8.16699 7.71567 8.63599 7.312 9.33366H6.99992C6.6905 9.33366 6.39375 9.45658 6.17496 9.67537C5.95617 9.89416 5.83325 10.1909 5.83325 10.5003C5.83325 10.8097 5.95617 11.1065 6.17496 11.3253C6.39375 11.5441 6.6905 11.667 6.99992 11.667H7.312C7.51684 12.0218 7.81148 12.3164 8.16629 12.5212C8.5211 12.726 8.92358 12.8338 9.33325 12.8337ZM10.4999 10.5003C10.4999 10.8097 10.377 11.1065 10.1582 11.3253C9.93942 11.5441 9.64267 11.667 9.33325 11.667C9.02383 11.667 8.72709 11.5441 8.50829 11.3253C8.2895 11.1065 8.16659 10.8097 8.16659 10.5003C8.16659 10.1909 8.2895 9.89416 8.50829 9.67537C8.72709 9.45658 9.02383 9.33366 9.33325 9.33366C9.64267 9.33366 9.93942 9.45658 10.1582 9.67537C10.377 9.89416 10.4999 10.1909 10.4999 10.5003ZM17.4999 13.417C17.4999 13.7264 17.377 14.0232 17.1582 14.2419C16.9394 14.4607 16.6427 14.5837 16.3333 14.5837C16.0238 14.5837 15.7271 14.4607 15.5083 14.2419C15.2895 14.0232 15.1666 13.7264 15.1666 13.417C15.1666 13.1076 15.2895 12.8108 15.5083 12.592C15.7271 12.3732 16.0238 12.2503 16.3333 12.2503C16.6427 12.2503 16.9394 12.3732 17.1582 12.592C17.377 12.8108 17.4999 13.1076 17.4999 13.417ZM12.2499 20.417C12.2499 20.7264 12.127 21.0232 11.9082 21.242C11.6894 21.4607 11.3927 21.5837 11.0833 21.5837C10.7738 21.5837 10.4771 21.4607 10.2583 21.242C10.0395 21.0232 9.91658 20.7264 9.91658 20.417C9.91658 20.1076 10.0395 19.8108 10.2583 19.592C10.4771 19.3732 10.7738 19.2503 11.0833 19.2503C11.3927 19.2503 11.6894 19.3732 11.9082 19.592C12.127 19.8108 12.2499 20.1076 12.2499 20.417Z" fill="#3F8133"/>
</svg>
