<svg width="28" height="28" viewBox="0 0 28 28" fill="none" xmlns="http://www.w3.org/2000/svg">
<path fill-rule="evenodd" clip-rule="evenodd" d="M14 2.3335L13.5975 2.7185L13.5952 2.72083L13.5899 2.7255L13.5712 2.74416L13.5001 2.81358C13.4379 2.87463 13.3492 2.96311 13.2341 3.079C11.8701 4.47119 10.6047 5.95665 9.44708 7.52458C7.39725 10.3135 5.25 14.048 5.25 17.5468C5.25 22.0764 9.21433 25.6668 14 25.6668C18.7857 25.6668 22.75 22.0764 22.75 17.5468C22.75 14.0468 20.6027 10.3129 18.5529 7.52516C17.3953 5.95703 16.1299 4.47138 14.7659 3.079C14.6546 2.9663 14.5422 2.85468 14.4288 2.74416L14.4101 2.7255L14.4043 2.72083L14.4025 2.7185L14 2.3335ZM9.02125 18.3162C8.9975 18.2434 8.95964 18.1759 8.90982 18.1177C8.86 18.0595 8.7992 18.0117 8.7309 17.9769C8.66259 17.9422 8.58812 17.9213 8.51173 17.9154C8.43533 17.9094 8.35852 17.9186 8.28567 17.9423C8.21282 17.9661 8.14536 18.0039 8.08714 18.0538C8.02892 18.1036 7.98109 18.1644 7.94636 18.2327C7.91164 18.301 7.89072 18.3755 7.88478 18.4519C7.87884 18.5282 7.888 18.6051 7.91175 18.6779C8.34877 20.0281 9.20164 21.2054 10.3483 22.0414C11.4937 22.8763 12.8744 23.3262 14.2917 23.3265C14.6137 23.3265 14.875 23.0646 14.875 22.7414C14.875 22.4182 14.6137 22.1563 14.2917 22.1563C13.121 22.1554 11.9807 21.7837 11.0343 21.0947C10.087 20.4038 9.38243 19.4317 9.02125 18.3162Z" fill="#3F8133"/>
</svg>
