<svg width="28" height="28" viewBox="0 0 28 28" fill="none" xmlns="http://www.w3.org/2000/svg">
<path d="M10.2667 24.5H5.83333C5.19167 24.5 4.64256 24.2717 4.186 23.8152C3.72944 23.3586 3.50078 22.8091 3.5 22.1667V17.7333C4.43333 17.7333 5.25 17.437 5.95 16.8443C6.65 16.2517 7 15.498 7 14.5833C7 13.6687 6.65 12.9154 5.95 12.3235C5.25 11.7316 4.43333 11.4349 3.5 11.4333V7C3.5 6.35833 3.72867 5.80922 4.186 5.35267C4.64333 4.89611 5.19244 4.66744 5.83333 4.66667H10.5C10.5 3.85 10.7819 3.15972 11.3458 2.59583C11.9097 2.03194 12.6 1.75 13.4167 1.75C14.2333 1.75 14.9236 2.03194 15.4875 2.59583C16.0514 3.15972 16.3333 3.85 16.3333 4.66667H21C21.6417 4.66667 22.1912 4.89533 22.6485 5.35267C23.1058 5.81 23.3341 6.35911 23.3333 7V11.6667C24.15 11.6667 24.8403 11.9486 25.4042 12.5125C25.9681 13.0764 26.25 13.7667 26.25 14.5833C26.25 15.4 25.9681 16.0903 25.4042 16.6542C24.8403 17.2181 24.15 17.5 23.3333 17.5V22.1667C23.3333 22.8083 23.1051 23.3578 22.6485 23.8152C22.1919 24.2725 21.6424 24.5008 21 24.5H16.5667C16.5667 23.5278 16.2606 22.7014 15.6485 22.0208C15.0364 21.3403 14.2924 21 13.4167 21C12.5409 21 11.7973 21.3403 11.186 22.0208C10.5747 22.7014 10.2682 23.5278 10.2667 24.5Z" fill="#3F8133"/>
</svg>
