<svg width="28" height="28" viewBox="0 0 28 28" fill="none" xmlns="http://www.w3.org/2000/svg">
<g clip-path="url(#clip0_1_335)">
<path d="M27.8717 14C27.8717 6.2685 21.6604 0 14 0C6.3397 0 0.127197 6.2685 0.127197 14C0.127197 21.7315 6.33853 28 14 28C16.3497 28 18.5617 27.4073 20.5019 26.3667C21.2252 26.7797 22.0629 27.0177 22.9577 27.0177C25.6714 27.0177 27.8717 24.8418 27.8717 22.1585C27.8717 21.0548 27.4995 20.0375 26.8719 19.222C27.5159 17.6085 27.8717 15.8457 27.8717 14ZM2.9027 14.0058C2.9027 7.64983 7.8832 2.49783 14.0269 2.49783C20.1705 2.49783 25.151 7.64983 25.151 14.0058C25.151 15.2542 24.9574 16.4547 24.6015 17.5793C24.0739 17.3933 23.5183 17.299 22.9589 17.3005C20.2452 17.3005 18.0449 19.4763 18.0449 22.1597C18.0449 22.9997 18.2607 23.7895 18.6399 24.479C17.1987 25.1627 15.6232 25.5167 14.028 25.515C7.8832 25.5138 2.9027 20.3607 2.9027 14.0058ZM22.9589 25.5138C21.1925 25.5383 19.6455 24.0357 19.67 22.2612C19.67 20.4645 21.1424 19.0085 22.9589 19.0085C24.717 18.9793 26.2757 20.4902 26.2477 22.2612C26.2477 24.0578 24.7742 25.5138 22.9589 25.5138Z" fill="#3F8133"/>
</g>
<defs>
<clipPath id="clip0_1_335">
<rect width="28" height="28" fill="white"/>
</clipPath>
</defs>
</svg>
