<svg width="28" height="28" viewBox="0 0 28 28" fill="none" xmlns="http://www.w3.org/2000/svg">
<path fill-rule="evenodd" clip-rule="evenodd" d="M10.4556 21.5473C7.02208 18.9164 2.33325 14.5706 2.33325 10.4616C2.33325 3.59695 8.74992 1.03378 13.9999 6.33511C19.2499 1.03378 25.6666 3.59695 25.6666 10.4616C25.6666 14.5706 20.9766 18.9164 17.5443 21.5473C15.9903 22.7373 15.2133 23.3334 13.9999 23.3334C12.7866 23.3334 12.0096 22.7384 10.4556 21.5473ZM19.2499 7.29178C19.482 7.29178 19.7045 7.38397 19.8686 7.54806C20.0327 7.71216 20.1249 7.93472 20.1249 8.16678V9.62511H21.5833C21.8153 9.62511 22.0379 9.7173 22.202 9.8814C22.3661 10.0455 22.4583 10.268 22.4583 10.5001C22.4583 10.7322 22.3661 10.9547 22.202 11.1188C22.0379 11.2829 21.8153 11.3751 21.5833 11.3751H20.1249V12.8334C20.1249 13.0655 20.0327 13.2881 19.8686 13.4522C19.7045 13.6163 19.482 13.7084 19.2499 13.7084C19.0179 13.7084 18.7953 13.6163 18.6312 13.4522C18.4671 13.2881 18.3749 13.0655 18.3749 12.8334V11.3751H16.9166C16.6845 11.3751 16.462 11.2829 16.2979 11.1188C16.1338 10.9547 16.0416 10.7322 16.0416 10.5001C16.0416 10.268 16.1338 10.0455 16.2979 9.8814C16.462 9.7173 16.6845 9.62511 16.9166 9.62511H18.3749V8.16678C18.3749 7.93472 18.4671 7.71216 18.6312 7.54806C18.7953 7.38397 19.0179 7.29178 19.2499 7.29178Z" fill="#3F8133"/>
</svg>
