<svg width="100" height="100" viewBox="0 0 100 100" fill="none" xmlns="http://www.w3.org/2000/svg">
<path d="M67.4063 86.7188C61.9688 89.3044 56.0211 90.6391 50.0001 90.625C27.6001 90.625 9.37509 72.4 9.37509 50C9.37509 40.3906 12.6782 31.3156 18.7501 24.0375V31.25H25.0001V12.5H6.25009V18.75H15.1313C7.38314 27.3116 3.10267 38.4529 3.12509 50C3.12509 75.8469 24.1532 96.875 50.0001 96.875C56.9509 96.8895 63.8167 95.3476 70.0938 92.3625L67.4063 86.7188Z" fill="#F89920"/>
<path d="M65.625 28.125C55.75 28.125 47.6531 35.8031 46.9438 45.5C43.5083 42.3652 39.0258 40.6266 34.375 40.625H21.875V53.125C21.875 63.4656 30.2875 71.875 40.625 71.875H46.875V84.375H53.125V59.375H59.375C69.7125 59.375 78.125 50.9656 78.125 40.625V28.125H65.625ZM40.625 65.625C33.7312 65.625 28.125 60.0188 28.125 53.125V46.875H34.375C41.2688 46.875 46.875 52.4812 46.875 59.375V61.2063L39.7094 54.0406L35.2906 58.4594L42.4563 65.625H40.625ZM71.875 40.625C71.875 47.5188 66.2687 53.125 59.375 53.125H57.5437L64.7094 45.9594L60.2906 41.5406L53.125 48.7063V46.875C53.125 39.9812 58.7313 34.375 65.625 34.375H71.875V40.625Z" fill="#F89920"/>
<path d="M96.875 50.0001C96.875 24.1532 75.8469 3.1251 50 3.1251C43.0492 3.11063 36.1834 4.65251 29.9062 7.6376L32.5938 13.2814C38.0313 10.6957 43.979 9.36096 50 9.3751C72.4 9.3751 90.625 27.6001 90.625 50.0001C90.625 59.6095 87.3219 68.6845 81.25 75.9626V68.7501H75V87.5001H93.75V81.2501H84.8688C92.617 72.6885 96.8974 61.5472 96.875 50.0001Z" fill="#F89920"/>
</svg>
