<svg width="92" height="92" viewBox="0 0 92 92" fill="none" xmlns="http://www.w3.org/2000/svg">
<path d="M18.748 81.0562C27.4286 77.3256 35.6057 75.3131 43.2793 75.0187C50.9501 74.7229 60.8286 76.0409 72.9147 78.9729" stroke="#086938" stroke-width="8.33333" stroke-linecap="round"/>
<path d="M43.8416 87.306C42.2443 67.6393 42.9075 52.3615 45.8312 41.4727" stroke="#086938" stroke-width="8.33333" stroke-linecap="round"/>
<path d="M45.8312 43.9227C49.1437 31.3852 54.9771 23.9088 63.3312 21.4935C71.684 19.0768 79.7396 20.1838 87.4979 24.8143C87.5368 35.006 83.1132 42.472 74.2271 47.2123C65.3382 51.9539 55.8729 50.8574 45.8312 43.9227ZM45.3979 41.7102C47.134 26.738 43.6548 16.1928 34.9604 10.0748C26.2659 3.9567 16.1979 2.58934 4.75623 5.97268C2.75901 19.7866 5.81387 30.231 13.9208 37.306C22.0291 44.381 32.5215 45.8491 45.3979 41.7102Z" stroke="#086938" stroke-width="8.33333" stroke-linejoin="round"/>
</svg>
