<svg width="73" height="90" viewBox="0 0 73 90" fill="none" xmlns="http://www.w3.org/2000/svg">
<path d="M3.12598 53.4165C7.35514 53.4165 13.2551 52.1582 16.9593 54.8748L24.301 60.2498C27.0301 62.2498 29.9843 61.5915 33.0301 61.1165C37.0385 60.4873 40.626 63.9082 40.626 68.3582C40.626 69.5748 31.9885 72.6707 30.7426 73.2582C29.5431 73.8254 28.2115 74.0545 26.8913 73.9209C25.5712 73.7872 24.3125 73.2959 23.251 72.4998L14.9676 66.429" stroke="#9F3691" stroke-width="6.25" stroke-linecap="round" stroke-linejoin="round"/>
<path d="M40.626 65.625L57.6718 57.75C59.1751 57.2306 60.7965 57.1568 62.3408 57.5375C63.8851 57.9182 65.2864 58.7372 66.376 59.8958L69.1676 62.8167C70.1676 63.8583 69.9343 65.6167 68.6968 66.3333L35.9718 85.3375C35.005 85.9041 33.932 86.2656 32.8195 86.3997C31.707 86.5337 30.5788 86.4374 29.5051 86.1167L3.12598 78.2375M36.4676 44.7917C36.4676 44.7917 45.2176 35.4625 45.2176 23.9583C45.2176 12.4542 36.4676 3.125 36.4676 3.125C36.4676 3.125 27.7176 12.4542 27.7176 23.9583C27.7176 35.4625 36.4676 44.7917 36.4676 44.7917ZM36.4676 44.7917C36.4676 44.7917 49.2468 44.5083 57.301 36.2917C65.3551 28.0708 65.6343 15.0292 65.6343 15.0292C65.6343 15.0292 60.3426 15.1458 54.426 17.4208M36.4676 44.7917C36.4676 44.7917 23.6885 44.5083 15.6343 36.2917C7.58014 28.0708 7.30098 15.0292 7.30098 15.0292C7.30098 15.0292 12.5926 15.1458 18.5093 17.4208" stroke="#9F3691" stroke-width="6.25" stroke-linecap="round" stroke-linejoin="round"/>
</svg>
