<svg width="81" height="80" viewBox="0 0 81 80" fill="none" xmlns="http://www.w3.org/2000/svg">
<path d="M27.6417 54.0833C27.0528 54.0833 26.5597 53.8847 26.1625 53.4875C25.7625 53.0875 25.5625 52.5917 25.5625 52C25.5625 51.4083 25.7625 50.9139 26.1625 50.5167C26.5625 50.1194 27.0569 49.9208 27.6458 49.9208H36.7792C37.3708 49.9208 37.8653 50.1208 38.2625 50.5208C38.6597 50.9208 38.8597 51.4167 38.8625 52.0083C38.8653 52.6 38.6653 53.0944 38.2625 53.4917C37.8597 53.8889 37.3653 54.0875 36.7792 54.0875L27.6417 54.0833ZM25.0042 75C19.9958 75 15.725 73.2764 12.1917 69.8292C8.65833 66.3819 6.89167 62.175 6.89167 57.2083V19.3917C4.975 19.3917 3.34722 18.7361 2.00833 17.425C0.669445 16.1111 0 14.4958 0 12.5792V6.89167C0 4.99722 0.675 3.375 2.025 2.025C3.375 0.675 4.99722 0 6.89167 0H43.0292C44.9458 0 46.5875 0.675 47.9542 2.025C49.3181 3.375 50 4.99722 50 6.89167V12.5792C50 14.4958 49.3181 16.1111 47.9542 17.425C46.5875 18.7361 44.9458 19.3917 43.0292 19.3917V31.3292C43.0292 33.1792 42.3694 34.7639 41.05 36.0833C39.7306 37.4028 38.1472 38.0625 36.3 38.0625H27.6417C27.05 38.0625 26.5542 37.8625 26.1542 37.4625C25.7569 37.0625 25.5583 36.5667 25.5583 35.975C25.5583 35.3833 25.7569 34.8889 26.1542 34.4917C26.5514 34.0944 27.0472 33.8944 27.6417 33.8917H38.8583V19.3917H11.0583V57.2125C11.0583 61.0569 12.4167 64.2889 15.1333 66.9083C17.8472 69.525 21.1417 70.8333 25.0167 70.8333C26.4139 70.8333 27.7514 70.6472 29.0292 70.275C30.3097 69.9 31.5167 69.3458 32.65 68.6125C33.1222 68.3264 33.6264 68.2417 34.1625 68.3583C34.6986 68.475 35.1056 68.7792 35.3833 69.2708C35.6972 69.7625 35.7833 70.2986 35.6417 70.8792C35.5 71.4569 35.1806 71.9042 34.6833 72.2208C33.2472 73.0847 31.7292 73.7639 30.1292 74.2583C28.5292 74.7528 26.8194 75 25 75M57.6125 67.95C60.8514 67.95 63.6111 66.8083 65.8917 64.525C68.1694 62.2472 69.3083 59.4889 69.3083 56.25C69.3083 53.0111 68.1694 50.2528 65.8917 47.975C63.6111 45.6917 60.8514 44.55 57.6125 44.55C54.3764 44.55 51.6181 45.6917 49.3375 47.975C47.0569 50.2528 45.9167 53.0111 45.9167 56.25C45.9167 59.4889 47.0556 62.2486 49.3333 64.5292C51.6111 66.8097 54.3708 67.9486 57.6125 67.9458M57.6125 72.1125C53.2069 72.1125 49.4611 70.5708 46.375 67.4875C43.2889 64.4042 41.7472 60.6583 41.75 56.25C41.7528 51.8417 43.2944 48.0958 46.375 45.0125C49.4556 41.9292 53.2014 40.3875 57.6125 40.3875C62.0236 40.3875 65.7694 41.9292 68.85 45.0125C71.9306 48.0958 73.4722 51.8417 73.475 56.25C73.475 58.0194 73.1931 59.7194 72.6292 61.35C72.0625 62.9833 71.2403 64.5097 70.1625 65.9292L80.3375 76.1083C80.7264 76.4972 80.9208 76.9611 80.9208 77.5C80.9208 78.0389 80.7264 78.5028 80.3375 78.8917C79.9486 79.2806 79.4653 79.4764 78.8875 79.4792C78.3097 79.4819 77.8375 79.2875 77.4708 78.8958L67.2917 68.7958C65.8694 69.8764 64.343 70.7 62.7125 71.2667C61.0792 71.8333 59.3792 72.1167 57.6125 72.1167" fill="#F89920"/>
</svg>
