<svg width="66" height="91" viewBox="0 0 66 91" fill="none" xmlns="http://www.w3.org/2000/svg">
<path d="M58.2723 42.1042C59.5015 43.333 60.4765 44.792 61.1417 46.3977C61.8069 48.0034 62.1492 49.7244 62.1492 51.4625C62.1492 53.2006 61.8069 54.9216 61.1417 56.5273C60.4765 58.133 59.5015 59.592 58.2723 60.8208L58.2307 60.8625L32.639 86.4583L7.03901 60.8583L7.00151 60.8208C5.74361 59.5641 4.75215 58.0665 4.08646 56.4176C3.42077 54.7688 3.09452 53.0027 3.12724 51.2248C3.15995 49.447 3.55096 47.694 4.27687 46.0708C5.00277 44.4476 6.04866 42.9875 7.35194 41.7779C8.65523 40.5682 10.1891 39.6339 11.8619 39.0309C13.5346 38.4278 15.3118 38.1683 17.0872 38.268C18.8625 38.3678 20.5995 38.8246 22.1942 39.6111C23.7889 40.3977 25.2085 41.4979 26.3682 42.8458L32.639 49.1208L38.6807 43.0792C39.8519 41.6492 41.3097 40.4805 42.9602 39.6484C44.6107 38.8162 46.4171 38.339 48.2633 38.2475C50.1094 38.1561 51.9542 38.4524 53.6788 39.1173C55.4034 39.7823 56.9696 40.8012 58.2765 42.1083L58.2723 42.1042ZM20.1348 15.625C20.1348 17.2665 20.4582 18.892 21.0863 20.4085C21.7145 21.9251 22.6353 23.3031 23.796 24.4638C24.9567 25.6246 26.3347 26.5453 27.8513 27.1735C29.3679 27.8017 30.9933 28.125 32.6348 28.125C34.2764 28.125 35.9018 27.8017 37.4184 27.1735C38.9349 26.5453 40.3129 25.6246 41.4737 24.4638C42.6344 23.3031 43.5551 21.9251 44.1833 20.4085C44.8115 18.892 45.1348 17.2665 45.1348 15.625C45.1348 13.9835 44.8115 12.358 44.1833 10.8415C43.5551 9.32489 42.6344 7.9469 41.4737 6.78616C40.3129 5.62543 38.9349 4.70469 37.4184 4.07651C35.9018 3.44832 34.2764 3.125 32.6348 3.125C30.9933 3.125 29.3679 3.44832 27.8513 4.07651C26.3347 4.70469 24.9567 5.62543 23.796 6.78616C22.6353 7.9469 21.7145 9.32489 21.0863 10.8415C20.4582 12.358 20.1348 13.9835 20.1348 15.625Z" stroke="#9F3691" stroke-width="6.25"/>
</svg>
