<svg width="95" height="98" viewBox="0 0 95 98" fill="none" xmlns="http://www.w3.org/2000/svg">
<path d="M9.3812 63.3656C9.60932 55.6969 5.43745 52.8094 0.34995 50.9016C-1.34068 57.4625 3.32495 62.9219 9.3812 63.3656ZM10.5328 29.1234C13.7765 22.1781 11.089 17.8563 7.15776 14.0953C3.0312 19.4578 5.15307 26.3141 10.5328 29.1234ZM12.3624 48.4578C12.139 40.7937 16.3062 37.8937 21.3968 35.9937C23.0812 42.5516 18.4187 48.0094 12.3624 48.4578ZM12.3624 60.2781C12.139 52.6141 16.3062 49.7219 21.3968 47.8172C23.0812 54.3734 18.4187 59.8328 12.3624 60.2781ZM12.3624 36.6422C12.139 28.975 16.3062 26.075 21.3968 24.1703C23.0812 30.7344 18.4187 36.1906 12.3624 36.6422ZM9.3812 51.5469C9.60932 43.8828 5.43745 40.9828 0.34995 39.0828C-1.34068 45.6406 3.32495 51.1 9.3812 51.5469ZM9.3812 39.7313C9.60932 32.0625 5.43745 29.1641 0.34995 27.2562C-1.34068 33.8234 3.32495 39.275 9.3812 39.7313ZM66.8328 97.5547H25.7218L46.2796 61.9359L66.8328 97.5547ZM33.889 92.8375H58.6671L46.2781 71.3766L33.889 92.8375ZM3.37964 73.2906L90.475 49.5969L89.1812 44.8109L2.07964 68.5078L3.37964 73.2906ZM64.8374 0C64.8374 0 65.475 12.5641 76.4874 11.4984C76.4874 11.4984 77.7296 1.00156 64.8374 0ZM76.3671 40.8641C75.7757 41.696 74.9931 42.3738 74.0853 42.8404C73.1774 43.307 72.1707 43.5487 71.1499 43.5453C69.3953 43.5453 67.6765 42.7203 66.5171 41.5641C64.1453 38.9766 61.0703 33.1922 61.0703 33.1922C59.3468 29.6938 58.4234 26.9875 58.4234 24.2516C58.4234 18.4234 63.1406 13.3687 68.9843 13.3687C71.746 13.3669 74.3979 14.4498 76.3687 16.3844C78.3378 14.4492 80.9891 13.366 83.7499 13.3687C89.5921 13.3687 94.3093 18.4234 94.3093 24.2516C94.3093 26.9875 93.3843 29.6938 91.6625 33.1922C91.6625 33.1922 88.5875 38.975 86.2156 41.5641C85.0562 42.7203 83.3374 43.5453 81.5812 43.5453C80.5607 43.5485 79.5544 43.3066 78.6468 42.84C77.7392 42.3734 76.9584 41.6958 76.3671 40.8641Z" fill="#8A38F5"/>
</svg>
