<svg width="100" height="100" viewBox="0 0 100 100" fill="none" xmlns="http://www.w3.org/2000/svg">
<g filter="url(#filter0_d_1_255)">
<path fill-rule="evenodd" clip-rule="evenodd" d="M37.3416 76.9541C25.0791 67.5582 8.33325 52.0374 8.33325 37.3624C8.33325 12.8458 31.2499 3.69158 49.9999 22.6249C68.7499 3.69158 91.6666 12.8458 91.6666 37.3624C91.6666 52.0374 74.9166 67.5582 62.6582 76.9541C57.1082 81.2041 54.3332 83.3332 49.9999 83.3332C45.6666 83.3332 42.8916 81.2082 37.3416 76.9541ZM68.7499 26.0416C69.5787 26.0416 70.3736 26.3708 70.9596 26.9569C71.5457 27.5429 71.8749 28.3378 71.8749 29.1666V34.3749H77.0833C77.912 34.3749 78.7069 34.7042 79.293 35.2902C79.879 35.8763 80.2083 36.6711 80.2083 37.4999C80.2083 38.3287 79.879 39.1236 79.293 39.7096C78.7069 40.2957 77.912 40.6249 77.0833 40.6249H71.8749V45.8332C71.8749 46.6621 71.5457 47.4569 70.9596 48.043C70.3736 48.629 69.5787 48.9582 68.7499 48.9582C67.9211 48.9582 67.1263 48.629 66.5402 48.043C65.9542 47.4569 65.6249 46.6621 65.6249 45.8332V40.6249H60.4166C59.5878 40.6249 58.7929 40.2957 58.2069 39.7096C57.6208 39.1236 57.2916 38.3287 57.2916 37.4999C57.2916 36.6711 57.6208 35.8763 58.2069 35.2902C58.7929 34.7042 59.5878 34.3749 60.4166 34.3749H65.6249V29.1666C65.6249 28.3378 65.9542 27.5429 66.5402 26.9569C67.1263 26.3708 67.9211 26.0416 68.7499 26.0416Z" fill="#EA236F"/>
</g>
<defs>
<filter id="filter0_d_1_255" x="-4" y="0" width="108" height="108" filterUnits="userSpaceOnUse" color-interpolation-filters="sRGB">
<feFlood flood-opacity="0" result="BackgroundImageFix"/>
<feColorMatrix in="SourceAlpha" type="matrix" values="0 0 0 0 0 0 0 0 0 0 0 0 0 0 0 0 0 0 127 0" result="hardAlpha"/>
<feOffset dy="4"/>
<feGaussianBlur stdDeviation="2"/>
<feComposite in2="hardAlpha" operator="out"/>
<feColorMatrix type="matrix" values="0 0 0 0 0 0 0 0 0 0 0 0 0 0 0 0 0 0 0.25 0"/>
<feBlend mode="normal" in2="BackgroundImageFix" result="effect1_dropShadow_1_255"/>
<feBlend mode="normal" in="SourceGraphic" in2="effect1_dropShadow_1_255" result="shape"/>
</filter>
</defs>
</svg>
