<svg width="100" height="100" viewBox="0 0 100 100" fill="none" xmlns="http://www.w3.org/2000/svg">
<path d="M12.4999 37.4999C13.605 37.4999 14.6648 37.0609 15.4462 36.2795C16.2276 35.4981 16.6666 34.4383 16.6666 33.3333V20.8333C16.6666 19.7282 17.1056 18.6684 17.887 17.887C18.6684 17.1056 19.7282 16.6666 20.8333 16.6666H33.3333C34.4383 16.6666 35.4981 16.2276 36.2795 15.4462C37.0609 14.6648 37.4999 13.605 37.4999 12.4999C37.4999 11.3948 37.0609 10.335 36.2795 9.55364C35.4981 8.77224 34.4383 8.33325 33.3333 8.33325H20.8333C17.518 8.33325 14.3386 9.65021 11.9944 11.9944C9.65021 14.3386 8.33325 17.518 8.33325 20.8333V33.3333C8.33325 34.4383 8.77224 35.4981 9.55364 36.2795C10.335 37.0609 11.3948 37.4999 12.4999 37.4999ZM33.3333 83.3333H20.8333C19.7282 83.3333 18.6684 82.8943 17.887 82.1129C17.1056 81.3315 16.6666 80.2717 16.6666 79.1666V66.6666C16.6666 65.5615 16.2276 64.5017 15.4462 63.7203C14.6648 62.9389 13.605 62.4999 12.4999 62.4999C11.3948 62.4999 10.335 62.9389 9.55364 63.7203C8.77224 64.5017 8.33325 65.5615 8.33325 66.6666V79.1666C8.33325 82.4818 9.65021 85.6612 11.9944 88.0054C14.3386 90.3496 17.518 91.6666 20.8333 91.6666H33.3333C34.4383 91.6666 35.4981 91.2276 36.2795 90.4462C37.0609 89.6648 37.4999 88.605 37.4999 87.4999C37.4999 86.3948 37.0609 85.335 36.2795 84.5536C35.4981 83.7722 34.4383 83.3333 33.3333 83.3333ZM70.8332 54.1666C71.9383 54.1666 72.9981 53.7276 73.7795 52.9462C74.5609 52.1648 74.9999 51.105 74.9999 49.9999C74.9999 48.8948 74.5609 47.835 73.7795 47.0536C72.9981 46.2722 71.9383 45.8333 70.8332 45.8333H66.0832C65.3351 42.9672 63.8366 40.3523 61.7421 38.2578C59.6476 36.1632 57.0327 34.6647 54.1666 33.9166V29.1666C54.1666 28.0615 53.7276 27.0017 52.9462 26.2203C52.1648 25.4389 51.105 24.9999 49.9999 24.9999C48.8948 24.9999 47.835 25.4389 47.0536 26.2203C46.2722 27.0017 45.8333 28.0615 45.8333 29.1666V33.9166C42.9672 34.6647 40.3523 36.1632 38.2578 38.2578C36.1632 40.3523 34.6647 42.9672 33.9166 45.8333H29.1666C28.0615 45.8333 27.0017 46.2722 26.2203 47.0536C25.4389 47.835 24.9999 48.8948 24.9999 49.9999C24.9999 51.105 25.4389 52.1648 26.2203 52.9462C27.0017 53.7276 28.0615 54.1666 29.1666 54.1666H33.9166C34.6647 57.0327 36.1632 59.6476 38.2578 61.7421C40.3523 63.8366 42.9672 65.3351 45.8333 66.0832V70.8332C45.8333 71.9383 46.2722 72.9981 47.0536 73.7795C47.835 74.5609 48.8948 74.9999 49.9999 74.9999C51.105 74.9999 52.1648 74.5609 52.9462 73.7795C53.7276 72.9981 54.1666 71.9383 54.1666 70.8332V66.0832C57.0327 65.3351 59.6476 63.8366 61.7421 61.7421C63.8366 59.6476 65.3351 57.0327 66.0832 54.1666H70.8332ZM49.9999 58.3333C48.3517 58.3333 46.7406 57.8445 45.3702 56.9288C43.9998 56.0132 42.9317 54.7117 42.3009 53.1889C41.6702 51.6662 41.5052 49.9907 41.8267 48.3742C42.1483 46.7577 42.9419 45.2728 44.1074 44.1074C45.2728 42.9419 46.7577 42.1483 48.3742 41.8267C49.9907 41.5052 51.6662 41.6702 53.1889 42.3009C54.7117 42.9317 56.0132 43.9998 56.9288 45.3702C57.8445 46.7406 58.3333 48.3517 58.3333 49.9999C58.3333 52.2101 57.4553 54.3297 55.8925 55.8925C54.3297 57.4553 52.2101 58.3333 49.9999 58.3333ZM87.4999 62.4999C86.3948 62.4999 85.335 62.9389 84.5536 63.7203C83.7722 64.5017 83.3333 65.5615 83.3333 66.6666V79.1666C83.3333 80.2717 82.8943 81.3315 82.1129 82.1129C81.3315 82.8943 80.2717 83.3333 79.1666 83.3333H66.6666C65.5615 83.3333 64.5017 83.7722 63.7203 84.5536C62.9389 85.335 62.4999 86.3948 62.4999 87.4999C62.4999 88.605 62.9389 89.6648 63.7203 90.4462C64.5017 91.2276 65.5615 91.6666 66.6666 91.6666H79.1666C82.4818 91.6666 85.6612 90.3496 88.0054 88.0054C90.3496 85.6612 91.6666 82.4818 91.6666 79.1666V66.6666C91.6666 65.5615 91.2276 64.5017 90.4462 63.7203C89.6648 62.9389 88.605 62.4999 87.4999 62.4999ZM79.1666 8.33325H66.6666C65.5615 8.33325 64.5017 8.77224 63.7203 9.55364C62.9389 10.335 62.4999 11.3948 62.4999 12.4999C62.4999 13.605 62.9389 14.6648 63.7203 15.4462C64.5017 16.2276 65.5615 16.6666 66.6666 16.6666H79.1666C80.2717 16.6666 81.3315 17.1056 82.1129 17.887C82.8943 18.6684 83.3333 19.7282 83.3333 20.8333V33.3333C83.3333 34.4383 83.7722 35.4981 84.5536 36.2795C85.335 37.0609 86.3948 37.4999 87.4999 37.4999C88.605 37.4999 89.6648 37.0609 90.4462 36.2795C91.2276 35.4981 91.6666 34.4383 91.6666 33.3333V20.8333C91.6666 17.518 90.3496 14.3386 88.0054 11.9944C85.6612 9.65021 82.4818 8.33325 79.1666 8.33325Z" fill="#DA483B"/>
</svg>
